<?xml version="1.0" encoding="UTF-8"?>
<svg xmlns="http://www.w3.org/2000/svg" width="1280" height="720" viewBox="0 0 1920 1080" data-kineweave-document="document_main">
  <rect width="1920" height="1080" fill="#111318" />
  <g id="node_scene" transform="translate(-90 45) rotate(7) scale(1 1) translate(0 0)" data-kineweave-source="kw://project/document/document_main/node/node_scene">
    <rect id="node_panel" transform="translate(960 540) rotate(0) scale(1 1) translate(0 0)" display="none" data-kineweave-source="kw://project/document/document_main/node/node_panel" x="-640" y="-240" width="1280" height="480" rx="48" fill="#20283c" stroke="#405175" stroke-width="4" />
    <g id="node_cluster" transform="translate(180 120) rotate(-18) scale(0.72 1.15) translate(-960 -540)" opacity="0.64" data-kineweave-source="kw://project/document/document_main/node/node_cluster">
      <ellipse id="node_orbit" transform="translate(960 540) rotate(0) scale(1 1) translate(0 0)" opacity="0" data-kineweave-source="kw://project/document/document_main/node/node_orbit" cx="0" cy="0" rx="280" ry="280" fill="#00000000" stroke="#5b7cff" stroke-width="10" />
      <path id="node_mark" transform="translate(960 430) rotate(0) scale(1.4 0.8) translate(-12 8)" data-kineweave-source="kw://project/document/document_main/node/node_mark" d="M 0 -72 L 62 0 L 0 72 L -62 0 Z" fill="#8ea3ff" stroke="#00000000" stroke-width="0" />
      <text id="node_headline" transform="translate(960 620) rotate(0) scale(1 1) translate(0 0)" opacity="0.55" data-kineweave-source="kw://project/document/document_main/node/node_headline" x="0" y="0" fill="#ffffff" font-family="sans-serif" font-size="88" text-anchor="middle" dominant-baseline="middle">Hello KineWeave</text>
    </g>
  </g>
</svg>
